<svg xmlns="http://www.w3.org/2000/svg" width="32" height="32" viewBox="0 0 32 32"><g clip-path="url(#clip0)"><path fill-rule="evenodd" clip-rule="evenodd" d="M16.7617 6.60548V7.27208C19.7183 7.65106 21.9921 10.1927 21.9921 13.2157V13.6133H28.2383C28.659 13.6133 29 13.9543 29 14.375V26.7149C29 27.1356 28.659 27.4766 28.2383 27.4766H21.9921V28.2384H21.9891C21.9891 28.6575 21.6494 28.9972 21.2304 28.9972L10.7695 29.0004C10.3488 29.0004 10.0078 28.6594 10.0078 28.2387V27.4766H3.76172C3.34105 27.4766 3 27.1356 3 26.7149V14.375C3 13.9543 3.34105 13.6133 3.76172 13.6133H10.0078V13.2158C10.0078 10.1925 12.2815 7.65106 15.2383 7.27208L15.2382 3.76172C15.2382 3.34105 15.5792 3 15.9999 3H18.5898C19.0104 3 19.3515 3.34105 19.3515 3.76172V5.84376C19.3515 6.26443 19.0104 6.60548 18.5898 6.60548H16.7617ZM16.7617 23.8711V27.4766H17.4219V23.8711H16.7617ZM15.2383 27.4766V23.8711H14.5781V27.4766H15.2383ZM24.2773 24.2774H25.1913C25.612 24.2774 25.9531 23.9364 25.9531 23.5157C25.9531 23.095 25.612 22.754 25.1913 22.754H24.2773C23.8566 22.754 23.5156 23.095 23.5156 23.5157C23.5156 23.9364 23.8566 24.2774 24.2773 24.2774ZM24.2773 21.2306H25.1913C25.612 21.2306 25.9531 20.8895 25.9531 20.4688C25.9531 20.0482 25.612 19.7071 25.1913 19.7071H24.2773C23.8566 19.7071 23.5156 20.0482 23.5156 20.4688C23.5156 20.8895 23.8566 21.2306 24.2773 21.2306ZM24.2773 18.1837H25.1913C25.612 18.1837 25.9531 17.8426 25.9531 17.422C25.9531 17.0013 25.612 16.6602 25.1913 16.6602H24.2773C23.8566 16.6602 23.5156 17.0013 23.5156 17.422C23.5156 17.8426 23.8566 18.1837 24.2773 18.1837ZM13.8163 22.3477C15.2721 22.3477 16.7278 22.3477 18.1836 22.3477C18.6042 22.3477 18.9453 22.6887 18.9453 23.1094V27.4798L20.4686 27.4797V13.7149H11.5312V27.48L13.0546 27.4799V23.1094C13.0546 22.6887 13.3957 22.3477 13.8163 22.3477ZM13.8163 20.3164H18.1835C18.6042 20.3164 18.9452 19.9754 18.9452 19.5547C18.9452 19.134 18.6042 18.793 18.1835 18.793H13.8163C13.3957 18.793 13.0546 19.134 13.0546 19.5547C13.0546 19.9754 13.3957 20.3164 13.8163 20.3164ZM13.8163 17.2696H18.1835C18.6042 17.2696 18.9452 16.9285 18.9452 16.5078C18.9452 16.0872 18.6042 15.7461 18.1835 15.7461H13.8163C13.3957 15.7461 13.0546 16.0872 13.0546 16.5078C13.0546 16.9285 13.3957 17.2696 13.8163 17.2696ZM6.80855 24.2774H7.72261C8.14329 24.2774 8.48433 23.9364 8.48433 23.5157C8.48433 23.095 8.14329 22.754 7.72261 22.754H6.80855C6.38788 22.754 6.04683 23.095 6.04683 23.5157C6.04678 23.9364 6.38783 24.2774 6.80855 24.2774ZM6.80855 21.2306H7.72261C8.14329 21.2306 8.48433 20.8895 8.48433 20.4688C8.48433 20.0482 8.14329 19.7071 7.72261 19.7071H6.80855C6.38788 19.7071 6.04683 20.0482 6.04683 20.4688C6.04678 20.8895 6.38783 21.2306 6.80855 21.2306ZM6.80855 18.1837H7.72261C8.14329 18.1837 8.48433 17.8426 8.48433 17.422C8.48433 17.0013 8.14329 16.6602 7.72261 16.6602H6.80855C6.38788 16.6602 6.04683 17.0013 6.04683 17.422C6.04678 17.8426 6.38783 18.1837 6.80855 18.1837ZM11.6507 12.1914H20.3491C19.8782 10.2062 18.0859 8.74708 15.9999 8.74708C13.9139 8.74708 12.1215 10.2061 11.6507 12.1914ZM10.0077 25.9532V15.1367H4.52344V25.9532H10.0077ZM21.9921 15.1367V25.9532H27.4766V15.1367H21.9921ZM17.8281 4.52344H16.7616V5.08204H17.8281V4.52344Z" fill="rgb(28,48,194)"></path></g><defs><clipPath id="clip0"><rect width="26" height="26" fill="white" transform="translate(3 3)"></rect></clipPath></defs></svg>