<svg width="38" height="42" viewBox="0 0 38 42" fill="none" xmlns="http://www.w3.org/2000/svg">
<path fill-rule="evenodd" clip-rule="evenodd" d="M18.9998 0.833252C13.431 0.833252 8.9165 5.34771 8.9165 10.9166C8.9165 16.4855 13.431 20.9999 18.9998 20.9999C24.5687 20.9999 29.0832 16.4855 29.0832 10.9166C29.0832 5.34771 24.5687 0.833252 18.9998 0.833252ZM12.5832 10.9166C12.5832 7.37276 15.456 4.49992 18.9998 4.49992C22.5437 4.49992 25.4165 7.37276 25.4165 10.9166C25.4165 14.4604 22.5437 17.3333 18.9998 17.3333C15.456 17.3333 12.5832 14.4604 12.5832 10.9166Z" fill="white"/>
<path d="M11.6665 24.6666C5.59137 24.6666 0.666504 29.5915 0.666504 35.6666V39.3333C0.666504 40.3458 1.48732 41.1666 2.49984 41.1666C3.51236 41.1666 4.33317 40.3458 4.33317 39.3333V35.6666C4.33317 31.6165 7.61642 28.3333 11.6665 28.3333H26.3332C30.3833 28.3333 33.6665 31.6165 33.6665 35.6666V39.3333C33.6665 40.3458 34.4873 41.1666 35.4998 41.1666C36.5124 41.1666 37.3332 40.3458 37.3332 39.3333V35.6666C37.3332 29.5915 32.4083 24.6666 26.3332 24.6666H11.6665Z" fill="white"/>
</svg>
