<svg width="18" height="12" viewBox="0 0 18 12" fill="none" xmlns="http://www.w3.org/2000/svg">
<path d="M4 9.5C4 8.39543 3.10457 7.5 2 7.5C0.895431 7.5 0 8.39543 0 9.5C0 10.6046 0.895431 11.5 2 11.5C3.10457 11.5 4 10.6046 4 9.5Z" fill="black"/>
<path d="M4 2.5C4 1.39543 3.10457 0.5 2 0.5C0.895431 0.5 0 1.39543 0 2.5C0 3.60457 0.895431 4.5 2 4.5C3.10457 4.5 4 3.60457 4 2.5Z" fill="black"/>
<path d="M9 7.5C10.1046 7.5 11 8.39543 11 9.5C11 10.6046 10.1046 11.5 9 11.5C7.89543 11.5 7 10.6046 7 9.5C7 8.39543 7.89543 7.5 9 7.5Z" fill="black"/>
<path d="M11 2.5C11 1.39543 10.1046 0.5 9 0.5C7.89543 0.5 7 1.39543 7 2.5C7 3.60457 7.89543 4.5 9 4.5C10.1046 4.5 11 3.60457 11 2.5Z" fill="black"/>
<path d="M16 7.5C17.1046 7.5 18 8.39543 18 9.5C18 10.6046 17.1046 11.5 16 11.5C14.8954 11.5 14 10.6046 14 9.5C14 8.39543 14.8954 7.5 16 7.5Z" fill="black"/>
<path d="M18 2.5C18 1.39543 17.1046 0.5 16 0.5C14.8954 0.5 14 1.39543 14 2.5C14 3.60457 14.8954 4.5 16 4.5C17.1046 4.5 18 3.60457 18 2.5Z" fill="black"/>
</svg>
