<?xml version="1.0" encoding="iso-8859-1"?>
<svg xmlns="http://www.w3.org/2000/svg" viewBox="0 0 30 30">
    <defs>
        <style>
        .cls-1 {
            fill: #fff;
        }
        </style>
    </defs>
    <title>hide</title>
    <g id="Layer_10" data-name="Layer 10">
        <path class="cls-1" d="M26.48,14.36A15,15,0,0,0,15.64,9,6,6,0,0,0,15,9c-.19,0-.38,0-.56,0L13.38,5.08l-1.93.52,1,3.65a12.59,12.59,0,0,0-1.93.46,19.58,19.58,0,0,0-1.88.72,12.71,12.71,0,0,0-1.78,1c-.44.31-1.3,1-1.72,1.31a12.64,12.64,0,0,0-1.6,1.6L3,15a4.73,4.73,0,0,0,1.2,1.58A16,16,0,0,1,5.63,15l.07-.07,1,3.55a15.07,15.07,0,0,0,2.43,1.34l-1.7-6.33a13,13,0,0,1,1.77-1.08l2.19,8.18a14.56,14.56,0,0,0,2.17.39L11,11.63a13,13,0,0,1,1.93-.45l3.68,13.74,1.93-.52-1-3.64a15,15,0,0,0,8.9-5.11A1,1,0,0,0,26.48,14.36ZM19,15a4,4,0,0,1-2,3.45l-.41-1.52A2.47,2.47,0,0,0,17.5,15a2.49,2.49,0,0,0-2.12-2.46L15,11h0A4,4,0,0,1,19,15Zm1.27,2.87a6,6,0,0,0,0-5.74A13,13,0,0,1,24.37,15,12.94,12.94,0,0,1,20.27,17.87Z" />
    </g>
</svg>