<svg xmlns="http://www.w3.org/2000/svg" width="32" height="32" viewBox="0 0 32 32"><path d="M28.0207 8.24849H21.7267C21.2589 5.88783 18.8723 4.08334 15.9997 4.08334C13.1277 4.08334 10.7411 5.88783 10.2733 8.24849H3.97865C3.43778 8.24849 3 8.62545 3 9.09118V17.722C3 18.1872 3.43778 18.5647 3.97865 18.5647H4.38772V26.3518C4.38772 26.8169 4.8255 27.1945 5.36636 27.1945H26.633C27.1732 27.1945 27.6116 26.8169 27.6116 26.3518V18.5647H28.0214C28.5616 18.5647 29 18.1872 29 17.722V9.09118C28.9993 8.62602 28.5609 8.24849 28.0207 8.24849ZM15.999 5.76929C17.788 5.76929 19.2925 6.82434 19.7277 8.24905H12.2717C12.7069 6.82434 14.2107 5.76929 15.999 5.76929ZM4.95664 9.93387H27.0421V16.8793H18.8077V16.1462C18.8077 15.6805 18.3693 15.3035 17.8291 15.3035H14.1703C13.6294 15.3035 13.1916 15.6805 13.1916 16.1462V16.8793H4.95664V9.93387ZM15.1483 16.9889H16.8498V17.7164C16.8498 17.7187 16.8491 17.7203 16.8491 17.722C16.8491 17.7237 16.8498 17.7254 16.8498 17.7277V18.4541H15.1483V16.9889ZM25.6537 25.5091H6.34436V18.5647H13.191V19.2967C13.191 19.7619 13.6287 20.1394 14.1696 20.1394H17.8284C18.3686 20.1394 18.8071 19.7619 18.8071 19.2967V18.5647H25.653V25.5091H25.6537Z" fill="rgb(28,48,194)"></path></svg>