<svg xmlns="http://www.w3.org/2000/svg" width="32" height="32" viewBox="0 0 32 32"><path fill-rule="evenodd" clip-rule="evenodd" d="M5.48507 11.8031V9.77159C5.48507 9.35086 5.82616 9.00977 6.24689 9.00977H15.6427V4.84514C15.6427 4.42441 15.9838 4.08331 16.4045 4.08331H18.9947C19.4155 4.08331 19.7565 4.42441 19.7565 4.84514V6.92745C19.7565 7.34818 19.4155 7.68927 18.9947 7.68927H17.1664V9.00977H25.7496C26.1703 9.00977 26.5114 9.35086 26.5114 9.77159V11.8031H28.2382C28.6589 11.8031 29 12.1442 29 12.5649C29 12.9857 28.6589 13.3268 28.2382 13.3268H27.8319V26.4301C27.8319 26.8508 27.4908 27.1919 27.07 27.1919H4.9264C4.50567 27.1919 4.16457 26.8508 4.16457 26.4301V13.3268H3.76182C3.34109 13.3268 3 12.9857 3 12.5649C3 12.1442 3.34109 11.8031 3.76182 11.8031H5.48507ZM18.2329 5.60696H17.1664V6.16563H18.2329V5.60696ZM17.1664 21.0974V25.6683H19.0963V21.0974H17.1664ZM15.6427 25.6683V21.0974H13.7128V25.6683H15.6427ZM17.1664 15.6122V17.2882C17.1664 17.709 17.5074 18.0501 17.9282 18.0501H19.8581C20.2789 18.0501 20.6199 17.709 20.6199 17.2882C20.6199 16.8675 20.2789 16.5264 19.8581 16.5264H18.69V15.6122C18.69 15.1915 18.3489 14.8504 17.9282 14.8504C17.5074 14.8504 17.1664 15.1915 17.1664 15.6122ZM12.1891 15.6122V17.2882C12.1891 17.709 12.5302 18.0501 12.9509 18.0501H14.8809C15.3016 18.0501 15.6427 17.709 15.6427 17.2882C15.6427 16.8675 15.3016 16.5264 14.8809 16.5264H13.7128V15.6122C13.7128 15.1915 13.3717 14.8504 12.9509 14.8504C12.5302 14.8504 12.1891 15.1915 12.1891 15.6122ZM22.1436 20.3355V22.0115C22.1436 22.4323 22.4847 22.7734 22.9054 22.7734H24.8354C25.2561 22.7734 25.5972 22.4323 25.5972 22.0115C25.5972 21.5908 25.2561 21.2497 24.8354 21.2497H23.6672V20.3355C23.6672 19.9148 23.3261 19.5737 22.9054 19.5737C22.4847 19.5737 22.1436 19.9148 22.1436 20.3355ZM7.21186 20.3355V22.0115C7.21186 22.4323 7.55296 22.7734 7.97369 22.7734H9.90364C10.3244 22.7734 10.6655 22.4323 10.6655 22.0115C10.6655 21.5908 10.3244 21.2497 9.90364 21.2497H8.73551V20.3355C8.73551 19.9148 8.39442 19.5737 7.97369 19.5737C7.55296 19.5737 7.21186 19.9148 7.21186 20.3355ZM22.1436 15.6122V17.2882C22.1436 17.709 22.4847 18.0501 22.9054 18.0501H24.8354C25.2561 18.0501 25.5972 17.709 25.5972 17.2882C25.5972 16.8675 25.2561 16.5264 24.8354 16.5264H23.6672V15.6122C23.6672 15.1915 23.3261 14.8504 22.9054 14.8504C22.4847 14.8504 22.1436 15.1915 22.1436 15.6122ZM7.21186 15.6122V17.2882C7.21186 17.709 7.55296 18.0501 7.97369 18.0501H9.90364C10.3244 18.0501 10.6655 17.709 10.6655 17.2882C10.6655 16.8675 10.3244 16.5264 9.90364 16.5264H8.73551V15.6122C8.73551 15.1915 8.39442 14.8504 7.97369 14.8504C7.55296 14.8504 7.21186 15.1915 7.21186 15.6122ZM7.00871 11.8031H24.9877V10.5334H7.00871V11.8031ZM5.68822 13.3268V25.6683H12.1891V20.3355C12.1891 19.9148 12.5302 19.5737 12.9509 19.5737H19.8581C20.2789 19.5737 20.6199 19.9148 20.6199 20.3355V25.6683H26.3082V13.3268H5.68822Z" fill="rgb(28,48,194)" fill-opacity="0.54"></path></svg>