<?xml version="1.0" encoding="iso-8859-1"?>
<svg id="Слой_1" xmlns="http://www.w3.org/2000/svg" viewBox="0 0 24 22">
    <style>
    .st1 {
        fill: #fff
    }
    </style>
    <g id="Шар_2">
        <g id="Layer_10">
            <path class="st1" d="M12.7 4H14V2H8V0H6v2H0v2h10.6C10.1 6.2 8.8 8.2 7 9.7 5.8 8.7 4.8 7.4 4.1 6H1.9c.8 1.9 1.9 3.5 3.4 4.9-1.2.7-2.4 1.2-3.7 1.7l.6 1.9c1.8-.6 3.3-1.3 4.8-2.3 1.5 1 3 1.7 4.7 2.3l.6-1.9c-1.3-.4-2.5-1-3.6-1.7 2-1.8 3.4-4.2 4-6.9zM21.5 22H24L17.6 8h-1.3L10 22h2.5l1.3-3h6.4l1.3 3zm-6.8-5l2.3-5.4 2.3 5.4h-4.6z" />
        </g>
    </g>
</svg>